<svg viewBox="96.5984682713348 42.51896 248.2580634573304 305.36344" xmlns="http://www.w3.org/2000/svg" width="248.258" height="305.363"><defs><style>.cls-1{fill:none;}.cls-2{fill:#2ab476;}.cls-3{fill:#00386b;}</style></defs><g><path d="M287.37,177.96s-14.13.94-13.19,16.95c.76,12.91-.01,103.88-.34,138.64l24.37,9.7-10.84-165.29Z" class="cls-3"/><path d="M178.07,125.69s-1.88-12.24-16.52-11.94l-20.7,166.87,8.81,3.51,18.56,7.39,6.62-110.22.4-6.63s55.93-4.65,61.24,51.8l4.94,94.19,26.23,10.44.86-156.43-90.45-48.97Z" class="cls-3"/><path d="M222.21,313l.61-78.06s.45-51.24-47.98-53.65l-6.62,110.22,53.99,21.49Z" class="cls-2"/><polygon points="137.45 97.16 135.2 120.04 163.47 104.03 293.96 177.96 294.64 158.94 163 81.43 137.45 97.16" class="cls-3"/><polygon points="304.7 154.62 304.8 154.42 246.85 80.01 162.06 54.11 140.39 67.3 138.61 85.34 163 71.54 304.7 154.62" class="cls-3"/></g></svg>
